<svg xmlns="http://www.w3.org/2000/svg" version="1.1" xmlnsXlink="http://www.w3.org/1999/xlink" xmlns:svgjs="http://svgjs.dev/svgjs" width="1440" height="560" preserveAspectRatio="none" viewBox="0 0 1440 560">
    <g mask="url(&quot;#SvgjsMask1006&quot;)" fill="none">
        <path d="M268.38 272.68L333.33 310.18L333.33 385.18L268.38 422.68L203.43 385.18L203.43 310.18zM268.38 497.68L333.33 535.18L333.33 610.18L268.38 647.68L203.43 610.18L203.43 535.18zM398.29 47.68L463.24 85.18L463.24 160.18L398.29 197.68L333.33 160.18L333.33 85.18zM398.29 272.68L463.24 310.18L463.24 385.18L398.29 422.68L333.33 385.18L333.33 310.18zM333.33 385.18L398.29 422.68L398.29 497.68L333.33 535.18L268.38 497.68L268.38 422.68zM528.2 272.68L593.15 310.18L593.15 385.18L528.2 422.68L463.24 385.18L463.24 310.18zM528.2 497.68L593.15 535.18L593.15 610.18L528.2 647.68L463.24 610.18L463.24 535.18zM593.15 -64.82L658.1 -27.32L658.1 47.68L593.15 85.18L528.2 47.68L528.2 -27.32zM658.1 47.68L723.06 85.18L723.06 160.18L658.1 197.68L593.15 160.18L593.15 85.18zM593.15 160.18L658.1 197.68L658.1 272.68L593.15 310.18L528.2 272.68L528.2 197.68zM723.06 -64.82L788.01 -27.32L788.01 47.68L723.06 85.18L658.1 47.68L658.1 -27.32zM852.96 -64.82L917.92 -27.32L917.92 47.68L852.96 85.18L788.01 47.68L788.01 -27.32zM852.96 160.18L917.92 197.68L917.92 272.68L852.96 310.18L788.01 272.68L788.01 197.68zM852.96 385.18L917.92 422.68L917.92 497.68L852.96 535.18L788.01 497.68L788.01 422.68zM982.87 -64.82L1047.83 -27.32L1047.83 47.68L982.87 85.18L917.92 47.68L917.92 -27.32zM1047.83 272.68L1112.78 310.18L1112.78 385.18L1047.83 422.68L982.87 385.18L982.87 310.18zM1047.83 497.68L1112.78 535.18L1112.78 610.18L1047.83 647.68L982.87 610.18L982.87 535.18zM1112.78 385.18L1177.73 422.68L1177.73 497.68L1112.78 535.18L1047.83 497.68L1047.83 422.68zM1177.73 497.68L1242.69 535.18L1242.69 610.18L1177.73 647.68L1112.78 610.18L1112.78 535.18zM1242.69 -64.82L1307.64 -27.32L1307.64 47.68L1242.69 85.18L1177.73 47.68L1177.73 -27.32zM1307.64 272.68L1372.59 310.18L1372.59 385.18L1307.64 422.68L1242.69 385.18L1242.69 310.18zM1307.64 497.68L1372.59 535.18L1372.59 610.18L1307.64 647.68L1242.69 610.18L1242.69 535.18zM1372.6 -64.82L1437.55 -27.32L1437.55 47.68L1372.6 85.18L1307.64 47.68L1307.64 -27.32zM1567.46 272.68L1632.41 310.18L1632.41 385.18L1567.46 422.68L1502.5 385.18L1502.5 310.18z" stroke="rgba(24, 179, 181, 0.03)" stroke-width="2"></path>
        <path d="M260.88 272.68 a7.5 7.5 0 1 0 15 0 a7.5 7.5 0 1 0 -15 0zM325.83 310.18 a7.5 7.5 0 1 0 15 0 a7.5 7.5 0 1 0 -15 0zM325.83 385.18 a7.5 7.5 0 1 0 15 0 a7.5 7.5 0 1 0 -15 0zM260.88 422.68 a7.5 7.5 0 1 0 15 0 a7.5 7.5 0 1 0 -15 0zM195.93 385.18 a7.5 7.5 0 1 0 15 0 a7.5 7.5 0 1 0 -15 0zM195.93 310.18 a7.5 7.5 0 1 0 15 0 a7.5 7.5 0 1 0 -15 0zM260.88 497.68 a7.5 7.5 0 1 0 15 0 a7.5 7.5 0 1 0 -15 0zM325.83 535.18 a7.5 7.5 0 1 0 15 0 a7.5 7.5 0 1 0 -15 0zM325.83 610.18 a7.5 7.5 0 1 0 15 0 a7.5 7.5 0 1 0 -15 0zM260.88 647.68 a7.5 7.5 0 1 0 15 0 a7.5 7.5 0 1 0 -15 0zM195.93 610.18 a7.5 7.5 0 1 0 15 0 a7.5 7.5 0 1 0 -15 0zM195.93 535.18 a7.5 7.5 0 1 0 15 0 a7.5 7.5 0 1 0 -15 0zM390.79 47.68 a7.5 7.5 0 1 0 15 0 a7.5 7.5 0 1 0 -15 0zM455.74 85.18 a7.5 7.5 0 1 0 15 0 a7.5 7.5 0 1 0 -15 0zM455.74 160.18 a7.5 7.5 0 1 0 15 0 a7.5 7.5 0 1 0 -15 0zM390.79 197.68 a7.5 7.5 0 1 0 15 0 a7.5 7.5 0 1 0 -15 0zM325.83 160.18 a7.5 7.5 0 1 0 15 0 a7.5 7.5 0 1 0 -15 0zM325.83 85.18 a7.5 7.5 0 1 0 15 0 a7.5 7.5 0 1 0 -15 0zM390.79 272.68 a7.5 7.5 0 1 0 15 0 a7.5 7.5 0 1 0 -15 0zM455.74 310.18 a7.5 7.5 0 1 0 15 0 a7.5 7.5 0 1 0 -15 0zM455.74 385.18 a7.5 7.5 0 1 0 15 0 a7.5 7.5 0 1 0 -15 0zM390.79 422.68 a7.5 7.5 0 1 0 15 0 a7.5 7.5 0 1 0 -15 0zM390.79 497.68 a7.5 7.5 0 1 0 15 0 a7.5 7.5 0 1 0 -15 0zM520.7 272.68 a7.5 7.5 0 1 0 15 0 a7.5 7.5 0 1 0 -15 0zM585.65 310.18 a7.5 7.5 0 1 0 15 0 a7.5 7.5 0 1 0 -15 0zM585.65 385.18 a7.5 7.5 0 1 0 15 0 a7.5 7.5 0 1 0 -15 0zM520.7 422.68 a7.5 7.5 0 1 0 15 0 a7.5 7.5 0 1 0 -15 0zM520.7 497.68 a7.5 7.5 0 1 0 15 0 a7.5 7.5 0 1 0 -15 0zM585.65 535.18 a7.5 7.5 0 1 0 15 0 a7.5 7.5 0 1 0 -15 0zM585.65 610.18 a7.5 7.5 0 1 0 15 0 a7.5 7.5 0 1 0 -15 0zM520.7 647.68 a7.5 7.5 0 1 0 15 0 a7.5 7.5 0 1 0 -15 0zM455.74 610.18 a7.5 7.5 0 1 0 15 0 a7.5 7.5 0 1 0 -15 0zM455.74 535.18 a7.5 7.5 0 1 0 15 0 a7.5 7.5 0 1 0 -15 0zM585.65 -64.82 a7.5 7.5 0 1 0 15 0 a7.5 7.5 0 1 0 -15 0zM650.6 -27.32 a7.5 7.5 0 1 0 15 0 a7.5 7.5 0 1 0 -15 0zM650.6 47.68 a7.5 7.5 0 1 0 15 0 a7.5 7.5 0 1 0 -15 0zM585.65 85.18 a7.5 7.5 0 1 0 15 0 a7.5 7.5 0 1 0 -15 0zM520.7 47.68 a7.5 7.5 0 1 0 15 0 a7.5 7.5 0 1 0 -15 0zM520.7 -27.32 a7.5 7.5 0 1 0 15 0 a7.5 7.5 0 1 0 -15 0zM715.56 85.18 a7.5 7.5 0 1 0 15 0 a7.5 7.5 0 1 0 -15 0zM715.56 160.18 a7.5 7.5 0 1 0 15 0 a7.5 7.5 0 1 0 -15 0zM650.6 197.68 a7.5 7.5 0 1 0 15 0 a7.5 7.5 0 1 0 -15 0zM585.65 160.18 a7.5 7.5 0 1 0 15 0 a7.5 7.5 0 1 0 -15 0zM650.6 272.68 a7.5 7.5 0 1 0 15 0 a7.5 7.5 0 1 0 -15 0zM520.7 197.68 a7.5 7.5 0 1 0 15 0 a7.5 7.5 0 1 0 -15 0zM715.56 -64.82 a7.5 7.5 0 1 0 15 0 a7.5 7.5 0 1 0 -15 0zM780.51 -27.32 a7.5 7.5 0 1 0 15 0 a7.5 7.5 0 1 0 -15 0zM780.51 47.68 a7.5 7.5 0 1 0 15 0 a7.5 7.5 0 1 0 -15 0zM845.46 -64.82 a7.5 7.5 0 1 0 15 0 a7.5 7.5 0 1 0 -15 0zM910.42 -27.32 a7.5 7.5 0 1 0 15 0 a7.5 7.5 0 1 0 -15 0zM910.42 47.68 a7.5 7.5 0 1 0 15 0 a7.5 7.5 0 1 0 -15 0zM845.46 85.18 a7.5 7.5 0 1 0 15 0 a7.5 7.5 0 1 0 -15 0zM845.46 160.18 a7.5 7.5 0 1 0 15 0 a7.5 7.5 0 1 0 -15 0zM910.42 197.68 a7.5 7.5 0 1 0 15 0 a7.5 7.5 0 1 0 -15 0zM910.42 272.68 a7.5 7.5 0 1 0 15 0 a7.5 7.5 0 1 0 -15 0zM845.46 310.18 a7.5 7.5 0 1 0 15 0 a7.5 7.5 0 1 0 -15 0zM780.51 272.68 a7.5 7.5 0 1 0 15 0 a7.5 7.5 0 1 0 -15 0zM780.51 197.68 a7.5 7.5 0 1 0 15 0 a7.5 7.5 0 1 0 -15 0zM845.46 385.18 a7.5 7.5 0 1 0 15 0 a7.5 7.5 0 1 0 -15 0zM910.42 422.68 a7.5 7.5 0 1 0 15 0 a7.5 7.5 0 1 0 -15 0zM910.42 497.68 a7.5 7.5 0 1 0 15 0 a7.5 7.5 0 1 0 -15 0zM845.46 535.18 a7.5 7.5 0 1 0 15 0 a7.5 7.5 0 1 0 -15 0zM780.51 497.68 a7.5 7.5 0 1 0 15 0 a7.5 7.5 0 1 0 -15 0zM780.51 422.68 a7.5 7.5 0 1 0 15 0 a7.5 7.5 0 1 0 -15 0zM975.37 -64.82 a7.5 7.5 0 1 0 15 0 a7.5 7.5 0 1 0 -15 0zM1040.33 -27.32 a7.5 7.5 0 1 0 15 0 a7.5 7.5 0 1 0 -15 0zM1040.33 47.68 a7.5 7.5 0 1 0 15 0 a7.5 7.5 0 1 0 -15 0zM975.37 85.18 a7.5 7.5 0 1 0 15 0 a7.5 7.5 0 1 0 -15 0zM1040.33 272.68 a7.5 7.5 0 1 0 15 0 a7.5 7.5 0 1 0 -15 0zM1105.28 310.18 a7.5 7.5 0 1 0 15 0 a7.5 7.5 0 1 0 -15 0zM1105.28 385.18 a7.5 7.5 0 1 0 15 0 a7.5 7.5 0 1 0 -15 0zM1040.33 422.68 a7.5 7.5 0 1 0 15 0 a7.5 7.5 0 1 0 -15 0zM975.37 385.18 a7.5 7.5 0 1 0 15 0 a7.5 7.5 0 1 0 -15 0zM975.37 310.18 a7.5 7.5 0 1 0 15 0 a7.5 7.5 0 1 0 -15 0zM1040.33 497.68 a7.5 7.5 0 1 0 15 0 a7.5 7.5 0 1 0 -15 0zM1105.28 535.18 a7.5 7.5 0 1 0 15 0 a7.5 7.5 0 1 0 -15 0zM1105.28 610.18 a7.5 7.5 0 1 0 15 0 a7.5 7.5 0 1 0 -15 0zM1040.33 647.68 a7.5 7.5 0 1 0 15 0 a7.5 7.5 0 1 0 -15 0zM975.37 610.18 a7.5 7.5 0 1 0 15 0 a7.5 7.5 0 1 0 -15 0zM975.37 535.18 a7.5 7.5 0 1 0 15 0 a7.5 7.5 0 1 0 -15 0zM1170.23 422.68 a7.5 7.5 0 1 0 15 0 a7.5 7.5 0 1 0 -15 0zM1170.23 497.68 a7.5 7.5 0 1 0 15 0 a7.5 7.5 0 1 0 -15 0zM1235.19 535.18 a7.5 7.5 0 1 0 15 0 a7.5 7.5 0 1 0 -15 0zM1235.19 610.18 a7.5 7.5 0 1 0 15 0 a7.5 7.5 0 1 0 -15 0zM1170.23 647.68 a7.5 7.5 0 1 0 15 0 a7.5 7.5 0 1 0 -15 0zM1235.19 -64.82 a7.5 7.5 0 1 0 15 0 a7.5 7.5 0 1 0 -15 0zM1300.14 -27.32 a7.5 7.5 0 1 0 15 0 a7.5 7.5 0 1 0 -15 0zM1300.14 47.68 a7.5 7.5 0 1 0 15 0 a7.5 7.5 0 1 0 -15 0zM1235.19 85.18 a7.5 7.5 0 1 0 15 0 a7.5 7.5 0 1 0 -15 0zM1170.23 47.68 a7.5 7.5 0 1 0 15 0 a7.5 7.5 0 1 0 -15 0zM1170.23 -27.32 a7.5 7.5 0 1 0 15 0 a7.5 7.5 0 1 0 -15 0zM1300.14 272.68 a7.5 7.5 0 1 0 15 0 a7.5 7.5 0 1 0 -15 0zM1365.09 310.18 a7.5 7.5 0 1 0 15 0 a7.5 7.5 0 1 0 -15 0zM1365.09 385.18 a7.5 7.5 0 1 0 15 0 a7.5 7.5 0 1 0 -15 0zM1300.14 422.68 a7.5 7.5 0 1 0 15 0 a7.5 7.5 0 1 0 -15 0zM1235.19 385.18 a7.5 7.5 0 1 0 15 0 a7.5 7.5 0 1 0 -15 0zM1235.19 310.18 a7.5 7.5 0 1 0 15 0 a7.5 7.5 0 1 0 -15 0zM1300.14 497.68 a7.5 7.5 0 1 0 15 0 a7.5 7.5 0 1 0 -15 0zM1365.09 535.18 a7.5 7.5 0 1 0 15 0 a7.5 7.5 0 1 0 -15 0zM1365.09 610.18 a7.5 7.5 0 1 0 15 0 a7.5 7.5 0 1 0 -15 0zM1300.14 647.68 a7.5 7.5 0 1 0 15 0 a7.5 7.5 0 1 0 -15 0zM1365.1 -64.82 a7.5 7.5 0 1 0 15 0 a7.5 7.5 0 1 0 -15 0zM1430.05 -27.32 a7.5 7.5 0 1 0 15 0 a7.5 7.5 0 1 0 -15 0zM1430.05 47.68 a7.5 7.5 0 1 0 15 0 a7.5 7.5 0 1 0 -15 0zM1365.1 85.18 a7.5 7.5 0 1 0 15 0 a7.5 7.5 0 1 0 -15 0zM1559.96 272.68 a7.5 7.5 0 1 0 15 0 a7.5 7.5 0 1 0 -15 0zM1624.91 310.18 a7.5 7.5 0 1 0 15 0 a7.5 7.5 0 1 0 -15 0zM1624.91 385.18 a7.5 7.5 0 1 0 15 0 a7.5 7.5 0 1 0 -15 0zM1559.96 422.68 a7.5 7.5 0 1 0 15 0 a7.5 7.5 0 1 0 -15 0zM1495 385.18 a7.5 7.5 0 1 0 15 0 a7.5 7.5 0 1 0 -15 0zM1495 310.18 a7.5 7.5 0 1 0 15 0 a7.5 7.5 0 1 0 -15 0z" fill="rgba(24, 179, 181, 0.03)"></path>
        <path d="M44.48 135.2L87.78 160.2L87.78 210.2L44.48 235.2L1.18 210.2L1.18 160.2zM44.48 435.2L87.78 460.2L87.78 510.2L44.48 535.2L1.18 510.2L1.18 460.2zM217.69 135.2L260.99 160.2L260.99 210.2L217.69 235.2L174.39 210.2L174.39 160.2zM520.81 360.2L564.11 385.2L564.11 435.2L520.81 460.2L477.51 435.2L477.51 385.2zM650.72 135.2L694.02 160.2L694.02 210.2L650.72 235.2L607.41 210.2L607.41 160.2zM650.72 435.2L694.02 460.2L694.02 510.2L650.72 535.2L607.41 510.2L607.41 460.2zM867.23 210.2L910.53 235.2L910.53 285.2L867.23 310.2L823.93 285.2L823.93 235.2zM953.83 60.2L997.14 85.2L997.14 135.2L953.83 160.2L910.53 135.2L910.53 85.2zM910.53 435.2L953.83 460.2L953.83 510.2L910.53 535.2L867.23 510.2L867.23 460.2zM997.14 -14.8L1040.44 10.2L1040.44 60.2L997.14 85.2L953.83 60.2L953.83 10.2zM997.14 135.2L1040.44 160.2L1040.44 210.2L997.14 235.2L953.83 210.2L953.83 160.2zM1040.44 360.2L1083.74 385.2L1083.74 435.2L1040.44 460.2L997.14 435.2L997.14 385.2zM1127.04 360.2L1170.35 385.2L1170.35 435.2L1127.04 460.2L1083.74 435.2L1083.74 385.2zM1213.65 360.2L1256.95 385.2L1256.95 435.2L1213.65 460.2L1170.35 435.2L1170.35 385.2zM1300.25 510.2L1343.56 535.2L1343.56 585.2L1300.25 610.2L1256.95 585.2L1256.95 535.2zM1473.46 360.2L1516.77 385.2L1516.77 435.2L1473.46 460.2L1430.16 435.2L1430.16 385.2z" stroke="rgba(24, 179, 181, 0.93)" stroke-width="2"></path>
    </g>
    <defs>
        <mask id="SvgjsMask1006">
            <rect width="1440" height="560" fill="#ffffff"></rect>
        </mask>
    </defs>
</svg>